# xmcd
#
# Track frame offsets: 
#        150
#        80681
#        128867
#        178007
#        203258
#        214890
#        272054
#        312342
#        345209
#
# Disc length: 4799 seconds
#
# Revision: 0
# Processed by: cddbd v1.4PL0 Copyright (c) Steve Scherf et al.
# Submitted via: ExactAudioCopy v0.90b4
#
DISCID=7b12bd09
DTITLE=Electric Blue and the Kozmik Truth - Live at at the Powder Mill
DTITLE=Barn
DYEAR=2003
DGENRE=Blues
TTITLE0=Fonebooth
TTITLE1=Well's Run Dry
TTITLE2=Handcuffs
TTITLE3=Lil Red Hen
TTITLE4=Sweet Love-->
TTITLE5=In Chicago-->
TTITLE6=When the Going Gets Tough-->Sweet Love
TTITLE7=Bananas and Blow
TTITLE8=Further Down The Line (Cut)
EXTD=DATE=1/10/2003\nCOMMENT=http://www.ebkt.com\nCOMMENT2=Support the
EXTD=se musicians! See them live!
EXTT0=
EXTT1=
EXTT2=
EXTT3=
EXTT4=
EXTT5=
EXTT6=
EXTT7=
EXTT8=
PLAYORDER=
